#!OML:ASF F:\VICON\USERDATA\INSTALL\rory3\rory3.ASF
:FULLY-SPECIFIED
:DEGREES
372
root 0.0692574 17.5874 38.5921 -2.77043 -4.7698 -5.1162
lowerback 9.71268 2.25543 4.28241
upperback 0.0914435 3.56612 1.56571
thorax -5.1921 1.66849 -1.26479
lowerneck -15.2192 -3.48852 -1.90253
upperneck 20.5046 -4.85274 2.0701
head 9.04288 -2.19727 0.428024
rclavicle -6.00955e-015 -1.06536e-014
rhumerus -20.9452 -14.5144 -80.973
rradius 32.4589
rwrist 2.72831
rhand -19.594 24.4807
rfingers 7.12502
rthumb 6.73177 -5.39232
lclavicle -6.00955e-015 -1.06536e-014
lhumerus -39.2196 20.0336 72.005
lradius 12.7759
lwrist -9.65696
lhand -24.8369 27.1418
lfingers 7.12502
lthumb 1.6691 57.115
rfemur 8.79041 2.95826 29.6132
rtibia 43.0862
rfoot -2.46885 1.85675
rtoes -2.27067
lfemur -25.204 -2.44916 -15.8409
ltibia 28.1224
lfoot 0.489032 -3.61147
ltoes 2.50041
373
root 0.0823867 17.5864 38.8072 -3.02304 -5.15568 -5.81749
lowerback 9.85832 2.32816 4.91631
upperback 0.146924 3.75215 1.78392
thorax -5.18198 1.74723 -1.42041
lowerneck -14.9927 -3.50772 -1.89828
upperneck 20.2587 -4.89907 2.16767
head 8.92035 -2.21285 0.460261
rclavicle 2.45658e-014 1.78658e-014
rhumerus -21.6363 -14.8113 -80.8994
rradius 32.7621
rwrist 2.86946
rhand -19.5025 24.6051
rfingers 7.12502
rthumb 6.82012 -5.26502
lclavicle 2.45658e-014 1.78658e-014
lhumerus -39.2342 19.3257 72.3768
lradius 13.2274
lwrist -8.62079
lhand -24.5572 27.1121
lfingers 7.12502
lthumb 1.93921 57.083
rfemur 8.05822 2.878 30.1347
rtibia 45.1861
rfoot 1.06122 2.01447
rtoes -3.24059
lfemur -24.6977 -1.82615 -15.2398
ltibia 29.1689
lfoot 0.0222047 -3.19108
ltoes 3.80286
374
root 0.105062 17.5997 39.0127 -2.99778 -5.3298 -5.99788
lowerback 9.77267 2.35841 5.20111
upperback 0.0886763 3.82486 1.84695
thorax -5.17751 1.7759 -1.51972
lowerneck -14.821 -3.49345 -1.94582
upperneck 20.088 -4.86704 2.17671
head 8.8312 -2.20398 0.479157
rclavicle 4.45071e-014 4.39578e-014
rhumerus -22.1215 -14.8858 -80.8175
rradius 32.7883
rwrist 2.72878
rhand -19.4707 24.1252
rfingers 7.12502
rthumb 6.85077 -5.74394
lclavicle 4.45071e-014 4.39578e-014
lhumerus -39.3638 18.6151 72.8494
lradius 13.8852
lwrist -7.62538
lhand -24.3714 27.2803
lfingers 7.12502
lthumb 2.11868 57.2496
rfemur 6.85584 2.56487 29.9441
rtibia 47.3279
rfoot 4.3879 2.42244
rtoes -4.13644
lfemur -24.4855 -1.31964 -15.3114
ltibia 30.1633
lfoot -0.857883 -3.23875
ltoes 4.27386
375
root 0.127804 17.6195 39.2176 -3.08763 -5.5109 -5.68433
lowerback 9.78489 2.3938 4.96884
upperback 0.126286 3.84027 1.76493
thorax -5.15274 1.78963 -1.47779
lowerneck -15.1085 -3.39831 -1.773
upperneck 20.217 -4.73683 1.99978
head 8.91582 -2.14459 0.40099
rclavicle 2.47066e-014 -7.3923e-016
rhumerus -22.4004 -15.0242 -80.8368
rradius 32.7472
rwrist 2.84589
rhand -19.2939 23.3914
rfingers 7.12502
rthumb 7.02143 -6.47215
lclavicle 2.47066e-014 -7.3923e-016
lhumerus -39.2867 17.9458 73.3375
lradius 14.5044
lwrist -6.46138
lhand -24.4233 27.7071
lfingers 7.12502
lthumb 2.06855 57.6769
rfemur 5.61201 2.29152 29.1936
rtibia 49.6631
rfoot 7.50886 2.67183
rtoes -4.38123
lfemur -24.0492 -0.980301 -15.8877
ltibia 31.087
lfoot -1.8865 -3.52102
ltoes 3.96561
376
root 0.146049 17.6403 39.4232 -3.26633 -5.72059 -5.38247
lowerback 9.9127 2.45836 4.7193
upperback 0.075908 3.90338 1.66809
thorax -5.28316 1.82168 -1.4566
lowerneck -14.9554 -3.35836 -1.79008
upperneck 20.2642 -4.70259 2.09432
head 8.90625 -2.12085 0.442291
rclavicle 1.70108e-014 -1.62134e-015
rhumerus -23.1071 -15.362 -80.7882
rradius 32.9608
rwrist 3.28591
rhand -19.1549 23.3697
rfingers 7.12502
rthumb 7.15567 -6.48938
lclavicle 1.70108e-014 -1.62134e-015
lhumerus -39.3204 17.4002 73.5743
lradius 14.8931
lwrist -5.49822
lhand -24.5382 27.6788
lfingers 7.12502
lthumb 1.95761 57.6496
rfemur 4.4136 2.15565 28.5565
rtibia 52.1069
rfoot 10.7401 2.41304
rtoes -2.16338
lfemur -23.3469 -0.658581 -16.4121
ltibia 31.7176
lfoot -2.75032 -3.54517
ltoes 3.61661
377
root 0.16088 17.6572 39.6198 -3.45276 -5.93939 -5.03645
lowerback 10.0066 2.48496 4.31778
upperback 0.00104017 3.90102 1.65012
thorax -5.43973 1.82602 -1.25915
lowerneck -14.3984 -3.30748 -1.99103
upperneck 20.0779 -4.62407 2.26115
head 8.74826 -2.08916 0.551557
rclavicle 2.81618e-015 4.79568e-015
rhumerus -23.9219 -15.3254 -80.7142
rradius 33.2928
rwrist 3.66696
rhand -19.0527 24.2248
rfingers 7.12502
rthumb 7.25433 -5.63083
lclavicle 2.81618e-015 4.79568e-015
lhumerus -39.6135 16.6264 74.0614
lradius 15.6964
lwrist -4.06902
lhand -24.6088 27.8769
lfingers 7.12502
lthumb 1.8894 57.8482
rfemur 3.05873 2.09444 27.9432
rtibia 54.6377
rfoot 14.0986 1.8187
rtoes 0.903658
lfemur -22.471 -0.362339 -16.96
ltibia 31.9999
lfoot -3.63174 -3.05696
ltoes 3.31422
378
root 0.177334 17.6691 39.8146 -3.50333 -6.03743 -4.78671
lowerback 9.99263 2.45709 4.07873
upperback 0.385418 3.81569 1.59838
thorax -5.04302 1.80316 -1.15668
lowerneck -16.1969 -3.36253 -1.95305
upperneck 20.6996 -4.6778 2.16195
head 9.29037 -2.09777 0.472003
rclavicle 4.88133e-014 1.26228e-014
rhumerus -23.4305 -15.3851 -81.0264
rradius 33.385
rwrist 3.90383
rhand -18.756 24.6501
rfingers 7.12502
rthumb 7.54062 -5.19544
lclavicle 4.88133e-014 1.26228e-014
lhumerus -38.8121 16.3993 74.6093
lradius 16.366
lwrist -3.05936
lhand -24.8173 27.5001
lfingers 7.12502
lthumb 1.68803 57.4731
rfemur 1.5283 1.82178 27.3631
rtibia 57.1451
rfoot 17.5582 1.31226
rtoes 4.14939
lfemur -21.644 -0.194115 -17.4025
ltibia 31.9393
lfoot -4.25496 -2.8116
ltoes 3.63833
379
root 0.195115 17.6884 40.0094 -3.74144 -6.00812 -3.7602
lowerback 10.1362 2.51085 3.19246
upperback 0.254267 3.78287 1.31593
thorax -5.29955 1.79879 -0.964151
lowerneck -15.8318 -3.38419 -1.99414
upperneck 20.74 -4.67981 2.05643
head 9.2353 -2.11727 0.448185
rclavicle -1.46969e-014 6.73383e-015
rhumerus -23.9546 -15.4933 -80.9359
rradius 33.0891
rwrist 4.21147
rhand -18.7997 24.8614
rfingers 7.12502
rthumb 7.49845 -4.98573
lclavicle -1.46969e-014 6.73383e-015
lhumerus -38.9793 15.5759 74.9618
lradius 16.8141
lwrist -2.14021
lhand -25.3818 26.9628
lfingers 7.12502
lthumb 1.14278 56.9395
rfemur 0.15405 1.31771 25.8796
rtibia 59.5866
rfoot 20.6767 1.15061
rtoes 7.4629
lfemur -20.6231 -0.216497 -18.7197
ltibia 31.6244
lfoot -4.59336 -2.71657
ltoes 4.12526
380
root 0.214846 17.7174 40.2076 -3.91518 -5.75783 -2.30836
lowerback 10.0974 2.4827 1.82931
upperback 0.269619 3.56491 0.930421
thorax -5.32628 1.72124 -0.572213
lowerneck -15.6648 -3.21658 -1.8612
upperneck 20.4413 -4.4345 1.88526
head 9.08802 -2.01534 0.403487
rclavicle -5.66536e-014 -5.2181e-015
rhumerus -24.1668 -15.6645 -80.9903
rradius 32.8694
rwrist 4.8635
rhand -19.0113 25.0271
rfingers 7.12502
rthumb 7.29427 -4.82721
lclavicle -5.66536e-014 -5.2181e-015
lhumerus -38.6896 13.8779 76.068
lradius 17.3917
lwrist 0.507734
lhand -26.5536 25.6181
lfingers 7.12502
lthumb 0.0110886 55.5978
rfemur -1.31079 0.53433 23.8593
rtibia 61.9345
rfoot 22.8838 0.685488
rtoes 11.8457
lfemur -19.6351 -0.448143 -20.5407
ltibia 31.2368
lfoot -5.00248 -2.38633
ltoes 4.13758
381
root 0.230715 17.7429 40.404 -4.02354 -5.50992 -1.91088
lowerback 9.95434 2.29283 1.48397
upperback 0.444218 3.26166 0.855079
thorax -5.08332 1.58318 -0.403429
lowerneck -15.7993 -3.12792 -2.08437
upperneck 20.221 -4.30372 2.13599
head 9.04547 -1.94447 0.541177
rclavicle 7.4816e-015 1.5704e-014
rhumerus -24.2244 -15.4615 -81.2001
rradius 32.902
rwrist 5.24093
rhand -19.2591 25.0471
rfingers 7.12502
rthumb 7.055 -4.81532
lclavicle 7.4816e-015 1.5704e-014
lhumerus -38.2384 12.4254 77.1317
lradius 18.045
lwrist 3.16667
lhand -28.569 24.9013
lfingers 7.12502
lthumb -1.9355 54.8722
rfemur -2.73186 -0.326014 23.1111
rtibia 64.11
rfoot 23.5508 -0.923661
rtoes 16.9275
lfemur -18.678 -0.508804 -21.1878
ltibia 30.9706
lfoot -5.63178 -2.20467
ltoes 3.03067
382
root 0.229973 17.7538 40.5795 -4.20207 -5.45598 -2.14876
lowerback 10.1796 2.17373 1.56875
upperback 0.484699 3.12423 0.990459
thorax -5.1723 1.5138 -0.299517
lowerneck -15.5956 -3.30303 -2.87328
upperneck 20.1352 -4.5548 3.03227
head 9.02713 -2.02794 0.948108
rclavicle 1.59727e-014 -3.97569e-016
rhumerus -24.4027 -15.2178 -81.3408
rradius 32.7867
rwrist 5.37316
rhand -19.2855 25.0633
rfingers 7.12502
rthumb 7.02952 -4.8
lclavicle 1.59727e-014 -3.97569e-016
lhumerus -38.0037 12.1136 77.2729
lradius 18.3281
lwrist 3.08975
lhand -30.8051 26.3639
lfingers 7.12502
lthumb -4.09492 56.3043
rfemur -4.16786 -1.00225 23.3368
rtibia 66.1814
rfoot 22.8747 -2.88014
rtoes 19.2724
lfemur -17.7546 -0.462824 -20.9996
ltibia 30.8834
lfoot -6.26148 -2.14506
ltoes 2.96759
